<?xml version="1.0" encoding="utf-8"?>
<!-- Generator: Adobe Illustrator 14.0.0, SVG Export Plug-In . SVG Version: 6.00 Build 43363)  -->
<!DOCTYPE svg PUBLIC "-//W3C//DTD SVG 1.1//EN" "http://www.w3.org/Graphics/SVG/1.1/DTD/svg11.dtd">
<svg version="1.1" id="Air_Jordan" xmlns="http://www.w3.org/2000/svg" xmlns:xlink="http://www.w3.org/1999/xlink" x="0px" y="0px"
	 width="400px" height="300px" viewBox="0 0 400 300" enable-background="new 0 0 400 300" xml:space="preserve">
<path id="Air_Jordan_1_" d="M211.51,52.075c-0.094-0.494-0.155-1.005-0.19-1.523c-0.499-7.174,4.901-13.395,12.075-13.9
	c7.181-0.5,13.398,4.908,13.899,12.082c0.5,7.174-4.9,13.396-12.073,13.901c-0.454,0.034-0.902,0.041-1.345,0.023
	c-0.29,0.075-0.465,0.11-0.715,0.331c-0.737,1.151,1.879,0.936,0.101,5.965c0,0-0.014,0.552-0.21,1.104
	c-0.141,1.93-0.884,7.651-0.988,10.697c0.378,0.442,0.482,0.657,0.442,1.727c-0.17,1.448-0.501,4.995-1.035,7.268
	c-0.452,1.948-1.248,2.319-1.889,2.796c-0.901,4.035-1.14,7.378-3.453,12.279c-0.21,3.715-0.471,4.727-1.251,6.541
	c-0.087,5.47,0.291,6.285-3.398,14.947c-0.953,4.051-0.047,6.854,0.959,11.063c1.028,4.326,3.883,6.133,4.308,10.563
	c1,10.434,0.749,17.538-1.489,25.718l1.954,4.627c2.425,1.111,8.441,4.152,5.104,8.965c4.698,2.471,11.797,5.093,17.65,10.1
	c2.354,1.961,4.843,4.1,7.074,6.609c4.25,0.662,3.796,1,6.947,2.936c9.261,5.681,24.115,16.945,32.726,24.922
	c1.482,0.867,2.088,1.49,3.284,2.117c0.188,0.359,0.238,0.441,0.198,0.539c-0.412,1.043-0.396,1.071-0.769,1.901
	c0.466,0.515,1.33,0.994,1.849,1.442c0.482,0.151,0.482-0.08,1.314-0.284c1.08,1.012,2.418,1.827,2.899,1.778
	c1.466-0.371,1.216-0.067,2.454-1.453c0.446-0.459,1.191,0.007,1.191,0.007c0.466-0.546,1.465-1.636,2.798-2.421
	c1.063-0.627,3.093-0.695,3.093-0.695c0.68,0.006,0.552,0.703,0.493,0.93c-0.768,0.396-2.396,0.832-3.309,1.506
	c-1.988,2.058-3.547,4.832-3.547,4.832c4.005-0.548,6.466,0.446,9.803,0.063c1.819-0.104,3.163,0.013,5.074-1.37
	c0,0,1.838-1.309,3.483-2.001c1.599-0.698,3.115-0.326,4.522,0.697c0.993,1.12,1.592,1.127,0.081,2.71
	c-0.546,0.615-1.338,1.302-2.344,2.296c-1.768,1.745-4.146,4.073-6.61,6c-2.493,1.946-5.324,3.696-7.093,4.499
	c-4.458,3.204-3.405,2.365-6.911,5.541c-0.442,0.396-1.617,1.104-2.186,1.482c-1.384,0.906-1.814,0.15-2.717-1.513
	c0,0-0.412-0.621-1.093-1.946c-0.744-1.447-1.303-3.104-1.076-3.076c-0.831-0.104-4.569-4.488-4.579-5.43
	c-0.792-0.181-4.164-3.447-4.285-4.07l-2.988-2.396c-3.418,0.71-4.203-1.412-13.23-7.819c-1.029-0.018-2.621-0.574-4.901-2.266
	c-4.075-3.264-13.849-10.646-15.505-11.49c-1.78-0.904-3.906-1.761-5.21-2.837c-1.954-0.358-3.022-0.563-3.999-0.836
	c-1-0.272-1.907-0.628-4.438-0.966c-4.114-0.512-8.384-2.215-12.446-4.249c-1.925-0.912-3.6-1.377-5.256-2.088
	c-3.715-1.569-6.899-2.981-9.368-3.554c-0.941-0.092-5.418-1.436-7.768-2.807c-0.813-0.42-1.285-0.82-1.819-0.941
	c-1.232-0.284-2.024,0.203-2.581,0.391c-3.012,1.568-5.831,2.924-8.438,4.325c-2.424,1.297-4.657,2.644-7.021,4.006
	c-2.136,1.231-4.601,2.396-7.135,3.604c0,0-7.228,3.621-11.174,5.028c-3.425,2.796-10.425,7.634-14.697,10.028
	c-2.115,1.006-6.227,3.609-8.123,4.191c-1.08,0.871-4.936,3.621-7.952,5.89c-2.331,1.743-4.094,3.215-4.094,3.215
	c-1.354,1.214-1.262,1.79-3.837,0.696c-0.715,0.586-1.267,0.953-1.727,1.291c-1.859,1.349-2.019,1.022-2.697,0.986
	c-1.297,1.123-1.459,0.543-2.593,1.833c-0.745,1.152,0.017,0.878-1.553,1.438c-0.332,0.128-0.489,0.526-0.744,0.75
	c-1.263,1.038-1.268,3.976-4.29,4.186c-1.75,1.249-1.303,2.757-2.641,2.691c0.082,1.296-2.365,3.187-2.807,3.18
	c-3.855,1.331-4.123-1.504-8.751,0.61c-0.599,0.273-1.477,1.031-2.633,1.251c-2.034,0.384-4.494-0.019-5.994-1.181
	c-2.361-1.819-4.535-5.332-4.535-5.332c-0.75-1.772-0.313-2.896,2.028-4.57c0.977-0.621,1.157-1.086,2.797-1.197
	c0.814-0.309,0.592,0.163,2.046-0.359c0.843-0.303,0.843-0.086,2.54-0.231c0.39-0.263,0.936-0.354,1.669-0.593
	c1.343-0.442,2.652-0.938,2.652-0.938s0.342-0.343,1.633-0.221c1.093-0.447,2.216-1.111,2.792-1.314
	c-0.146-1.73,0.04-1.649,0.842-2.348c1-0.861,1.18-0.723,1.925-0.188c0.314-0.182,0.466-0.244,0.431-0.506
	c-0.123-0.902-0.896-1.326-0.662-3.313c-0.344-0.798-0.851-1.778-0.739-2.372c0.163-0.641,0.32-0.948,0.709-1.152
	c0.414-0.22,0.547,0.077,0.768,0.325c0.396,0.46,0.716,1.821,0.716,1.821c0.139,1.535,0.615,3.523,2.133,2.4
	c0.895-0.908,1.068-3.324,2.894-2.808l1.304,1.132c1.104-1.039,1.156-1.039,1.819-1.458c0,0-1.035-1.046-0.128-1.86
	c0.622-0.553,1.372-0.947,2.704-2.424c3.657-4.041,5.534-5.826,9.488-9.082c7.889-6.488,16.866-11.039,22.568-13.303
	c1.86-2.359,3.669-3.93,7.797-4.326c4.905-8.285,14.301-15.685,16.459-16.863c1.755-3.182,2.517-2.844,4.813-3.481
	c1.819-1.459,2.231-1.459,3.047-2.981c0.79-3.146-1.825-11.546,4.854-11.972c1.418-2.005,1.063-1.523,2.645-3.418
	c-1.068-2.641-1.511-4.848-1.801-6.75c-0.053-0.221-2.651-2.053-1.914-4.441c-1.104-1.313-3.168-4.381-3.813-5.815
	c-0.296,0.006-0.541-0.104-0.865-0.149c-0.337-0.055-0.756-0.035-1.229-0.076c-1.04,2.686-2.173,2.884-4.021,3.477
	c-3.303,7.037-4.465,10.016-13.808,15.834c-3.709,4.152-4.896,8.778-4.878,8.71c-0.639,1.371-0.413,3.291-0.075,4.318
	c-0.488,1.523-0.36,1.676-0.36,1.676c0.204,0.574,0.732,1.337,1.384,1.499c1.122,0.297,2.245,0.25,2.179,1.5
	c-0.149,1.563-2.203,1.308-3.174,1.134c-3.738-0.594-2.557-3.029-4.947-2.217c-1.831,1.197-2.518,4.732-5.505,4.273
	c-0.396-0.262-0.273-1.035-0.007-1.593c0.419-0.873,1.164-1.594,0.722-1.92c-1.941,0.611-5.838,1.902-5.838,1.902
	c-1.831,0.499-3.837-0.414-2.035-1.618c0.839-0.325,2.035-0.732,3.513-1.68c0,0,0.761-1.035-0.697-0.518
	c-1.594,0.569-3.943,0.924-5.628,0.738c0,0-3.494-0.459-3.941-0.732c-0.453-0.274-0.866-1.354,0.228-1.35
	c1.384,0.014,4.849-0.396,7.535-1.109c1.296-0.507,3.761-1.966,5.145-2.65c0,0,1.5-2.188,2.326-2.616
	c1.377-1.587,2.54-2.522,3.761-4.146c1.192-2.459,2.424-6.354,6.372-12.383c1.825-2.779,4.093-6.018,6.948-8.91
	c0,0,0.738-4.634,4.453-7.931c0.821-1.931,2.063-4.203,3.291-6.308c0.477-0.808,0.93-1.511,1.384-2.279
	c1.151-1.808,2.361-5.174,6.849-5.703c0,0,1.919-1.418,2.657-2.426c1.151-0.982,0.889-2.51,1.825-3.587
	c-1.43-1.395-5.086-4.017-5.442-7.662c-0.378-3.866,1-7.046,3.337-9.4c2.595-2.593,5.327-3.889,8.646-3.692
	c4.146,0.616,4.93,1.988,6.25,3.349c1.267,1.291,1.739,0.46,2.272,1.971c3.479,0.925,3.285,0.518,3.256,3.076
	c0.534,0.72,1.43,1.39,1.418,2.884c1.169-2.425,1.399-2.872,4.522-5.541c0.739-2.169,1.239-4.302,1.891-6.471
	c0.606-2.005,1.362-4.069,1.949-5.622c-0.622-4.384,0.657-5.11,2.36-8.953c-0.302-0.529-0.237-0.68-0.11-1.547
	c0.663-2.54,1.698-5.9,2.313-8.092c0,0,0.204-0.872,1.104-0.937c0.779-2.773,1.948-7.936,2.146-8.988
	c0.802-2.9,0.284-3.831-0.332-5.465c-0.196-0.535-0.104-1.296-0.446-1.89c-0.971-1.691-2.018-3.889-2.727-5.459
	c-0.46-1-1.188-4.768-1.188-4.768C210.969,50.151,211.51,52.075,211.51,52.075"/>
</svg>
