<?xml version="1.0" standalone="no"?>
<svg viewBox="-350 -150 1500 1500" xmlns="http://www.w3.org/2000/svg" style="width: 390px; height: 390px; justify-content: center; align-self: center; transform: scale(1, 1);"><rect x="-350" y="-150" width="100%" height="100%" fill="#3273dc" rx="30"></rect><g transform="rotate(0 410.55976486206055 618.166934967041)"><g id="body_Gym_Shirt" data-name="body/Gym Shirt" transform="translate(0 459)"><path id="_Skin" data-name="âœ‹ Skin" d="M719.572,723.813h0c-4.995,0-10.045-.24-14.929-.472-3.319-.158-6.455-.307-9.433-.375-19.1-2.556-38.6-4.37-59.6-5.547-18.789-1.053-38.317-1.564-59.7-1.564-41.975,0-84.682,2.033-125.983,4l-.033,0c-13.966.665-28.407,1.352-42.6,1.951-9.943.653-20.141.971-31.177.971-27.39,0-55.161-2.033-82.017-4l-.028,0c-26.836-1.966-54.585-4-81.916-4-12.252,0-23.521.394-34.453,1.2-25.7,2.808-52.269,5.711-78.72,5.711a296.881,296.881,0,0,1-35.221-1.96c-5.212-.829-10.662-1.344-15.933-1.843l-.007,0h0c-6.228-.589-12.667-1.2-18.855-2.33a70.327,70.327,0,0,1-17.9-5.514A21.534,21.534,0,0,1,3.2,702.356,23.651,23.651,0,0,1,.2,692.711c-.737-6.906.672-14.567,2.035-21.977a125.584,125.584,0,0,0,1.908-12.682c4.061-19.594,7.729-41.92,11.215-68.254,3.117-23.552,5.836-48.323,8.466-72.278v-.005c7.01-63.864,14.259-129.9,30.409-190.7,4.173-15.71,8.856-30.692,13.919-44.53a393.062,393.062,0,0,1,18.079-41.959,317.179,317.179,0,0,1,23.055-38.73,276.048,276.048,0,0,1,28.846-34.845,277.7,277.7,0,0,1,31.5-23.389,185.729,185.729,0,0,1,29.543-15.121c20.2-8.146,41.852-12.893,70.236-18.709a223.579,223.579,0,0,0,27.788-7.916c9.607-3.371,22.207-8.5,27.68-13.765,3.91-3.291,10.717-13.193,13.988-17.951l.51-.741c4.418-6.6,7.715-14.15,10.9-21.448,2.9-6.635,5.9-13.493,9.717-19.592a56.8,56.8,0,0,1,6.5-8.59,44.341,44.341,0,0,1,8.475-7.154C388.283,4.742,408.908,0,428.8,0a102.708,102.708,0,0,1,26.051,3.1c8.5,2.238,15.541,5.6,20.931,10a53.555,53.555,0,0,1,9.76,11.3,67,67,0,0,1,6.419,12.89c3.414,9.011,5.385,18.936,7.29,28.534,1.377,6.936,2.8,14.106,4.764,20.954a83.346,83.346,0,0,0,8.125,19.629c6.9,7.322,17.564,13.8,32.6,19.807,13.159,5.256,27.481,9.343,41.331,13.3,10.5,3,20.413,5.825,28.488,8.832,5.83,2.437,27.891,20.622,33.907,26.113A82.6,82.6,0,0,1,658.648,186.6a116.016,116.016,0,0,1,8.5,14.55,199.929,199.929,0,0,1,12.868,34.616c7.044,24.959,11.371,52.605,15.556,79.341,3.448,22.027,6.7,42.829,11.195,60.025,10.418,60.307,18.616,110.2,25.8,157,8.709,56.749,15.812,108.3,21.714,157.612a41.679,41.679,0,0,1,1.152,14.671,18.563,18.563,0,0,1-9.726,14.645,31.237,31.237,0,0,1-7.6,2.923C733.188,723.234,727.3,723.813,719.572,723.813ZM23.141,689.41c-.241.047-.492.172-.481.284.006.063.107.169.714.169.062,0,.128,0,.2,0l-.259-.269Z" transform="translate(33 -36)" fill="#d08b5b"></path><path id="_Ink" data-name="ðŸ– Ink" d="M762.355,713.32a11.585,11.585,0,0,1-7.664-2.712,11.883,11.883,0,0,1-3.8-8.359,7.854,7.854,0,0,1,2.32-6.46l-.021-.238c-.012-.113-.025-.2-.032-.254l-.005-.039c-.351-1.894-.531-3.881-.7-5.8-.084-.928-.171-1.888-.276-2.818-.482-4.174-.96-8.4-1.422-12.479l-.054-.48q-.3-2.614-.593-5.23c-1.262-10.974-2.627-22.77-4.06-34.67-2.836-23.654-5.84-47.276-8.929-70.21l-3.121-23.117c-4.692-34.632-10.306-75.437-16.366-115.5-6.417-42.429-12.722-80.06-19.274-115.042-3.823-20.4-7.867-41.379-12.02-62.359-2.343-11.816-4.323-20.876-6.42-29.376-2.619-10.617-5.367-20.059-8.4-28.865a188.693,188.693,0,0,0-21.92-44.212,158.883,158.883,0,0,0-33.35-36.217c.232,2.25.43,4.545.621,6.764v.016c.139,1.611.283,3.276.438,4.91.984,10.356,2.054,20.889,2.98,29.949,2.063,20.1,4.3,37.8,6.834,54.11,3,19.289,6.43,36.792,10.486,53.509a454.6,454.6,0,0,0,15.74,51.7c3.192,8.538,6.631,16.811,10.22,24.59,1.041,2.254,2.277,4.5,3.587,6.888,3.272,5.955,6.655,12.112,6.933,18.482a6.688,6.688,0,0,1-2,4.89,7.764,7.764,0,0,1-5.443,2.465,6.016,6.016,0,0,1-.66-.036c1.705,15.013,2.742,30.345,3.745,45.173q.137,2.023.273,4.037c.573,8.36,1.114,16.867,1.636,25.094l.006.1,0,.029c.953,14.993,1.938,30.5,3.156,45.721,3.547,44.41,8.087,89,12.06,126.77.768,7.31,1.61,14.738,2.424,21.921l0,.021.019.169q.169,1.489.337,2.979l.793,7.02q.036.3.072.609l.012.1c.531,4.455,1.133,9.5-1.159,13.333a69.146,69.146,0,0,1,4.5,16.141,14.82,14.82,0,0,1-.264,5.869,12.521,12.521,0,0,1-2.552,5.071,9.846,9.846,0,0,1-7.714,3.488c-.152,0-.3,0-.451-.008-.812-.028-1.69-.095-2.76-.21-7.13,1.651-14.764,3.268-22.8,3.319-1.38.01-2.845.015-4.355.015-5.283,0-10.657-.06-15.854-.119-3.164-.036-6.434-.073-9.691-.1H627.3c-17.759-.12-37.887-.255-57.687-.419-23.643-.19-47.687-.314-70.939-.434h-.094c-45.317-.234-92.177-.476-138.267-1.216l-27.907-.443c-23.264-.374-50.3-.854-76.742-1.817-19.633-.713-36.129-1.326-52.82-2l-3.584-.137c-1.77-.065-3.571-.126-5.312-.186l-.1,0c-13.5-.463-27.45-.943-41.024-3.044a.561.561,0,0,1-.371-.233.794.794,0,0,1-.121-.582l.023-.095-.671-.149a.315.315,0,0,1-.347.253c-.692,0-2.278-1.117-3.857-2.716a20.231,20.231,0,0,1-2.922-3.707,7.723,7.723,0,0,1-1.3-3.9c-2.763-3.593-2.2-8.886-1.7-13.555.107-1.008.208-1.957.272-2.856.225-3.174.492-6.394.749-9.508l.009-.106c.14-1.7.286-3.458.422-5.185.382-4.85.745-9.784,1.1-14.556l0-.043,0-.022c.409-5.566.832-11.321,1.289-16.978,3.945-48.821,6.585-89.361,8.311-127.58.8-17.671,1.48-35.643,2.139-53.023v-.009q.215-5.664.43-11.328c.45-11.876,1.018-20.9,1.841-29.262l.249-2.429c.251-2.357.44-4.8.622-7.171V379.2c.588-7.621,1.2-15.5,3.956-22.567a.143.143,0,0,1,.27,0c3.26,8.031,3.9,17.229,4.521,26.125.077,1.1.156,2.239.239,3.347.1-.029.19-.048.289-.067l.111-.023c1.095-.52,2.208-1.037,3.284-1.537a108.969,108.969,0,0,0,11.705-6.023c.427-.262.852-.538,1.263-.8l.006,0q.325-.212.652-.422c4.761-14.567,10.087-29.223,15.237-43.4,3.018-8.305,6.138-16.893,9.113-25.373,6.432-18.352,12.263-37.354,17.33-56.479,5-18.887,9.38-38.332,13.006-57.792A826.441,826.441,0,0,0,253.178,76.639c-15.52,10-32.372,18.4-48.67,26.513-4.525,2.253-9.2,4.583-13.783,6.913l-1.967,1a240.38,240.38,0,0,0-29.85,17.556,122.409,122.409,0,0,0-25.38,23.384,149.075,149.075,0,0,0-16.411,26.064c-4.647,9.139-8.644,18.533-12.668,28.156-7.993,19.124-15.725,39.789-22.981,61.421-6.847,20.416-13.193,41.867-18.862,63.758-5.38,20.774-10.318,42.6-14.677,64.861-4.124,21.057-7.78,42.807-10.867,64.647-2.993,21.177-5.541,43.085-7.573,65.113-2.242,24.3-4.038,46.129-5.49,66.73-.732,10.313-1.442,21.382-2.17,33.84-.13,2.221-.247,4.449-.36,6.6-.17,3.227-.345,6.565-.561,9.847-.033.477-.063.966-.091,1.439l0,.029a29.713,29.713,0,0,1-1.206,7.95,25.718,25.718,0,0,1-3.158,5.753c-.227.342-.463.7-.692,1.049a7.217,7.217,0,0,1-2.725,2.438,7.606,7.606,0,0,1-3.49.864,6.022,6.022,0,0,1-5.525-3.3l-1.07-2.062a21.976,21.976,0,0,1-2.9-8.678,51.63,51.63,0,0,1,.2-6.758c.057-.785.117-1.593.161-2.383.34-6.276.738-12.653,1.09-18.279.827-13.243,1.732-26.169,2.69-38.42,2.028-26.124,4.642-51.94,7.77-76.73,3.052-24.147,6.191-46.088,9.594-67.078,3.825-23.59,7.882-45.363,12.4-66.561,4.86-22.792,10.287-44.9,16.131-65.7,6.261-22.291,13.253-43.994,20.782-64.507,3.971-10.817,8.1-21.366,12.275-31.356,4.438-10.62,9.073-20.957,13.775-30.725a182.718,182.718,0,0,1,16.327-27.975,125.656,125.656,0,0,1,10.239-12.46,105.561,105.561,0,0,1,11.983-10.955,164.256,164.256,0,0,1,25.43-15.974c8.762-4.552,17.9-8.615,27.277-12.722l2.292-1c3.544-1.549,7.118-3.132,10.576-4.663,16.816-7.449,34.205-15.151,52-20.686a7.045,7.045,0,0,0-1.359.259.477.477,0,0,1-.144.023.424.424,0,0,1-.386-.267.508.508,0,0,1,.07-.545,14.625,14.625,0,0,0,1.337-1.8,12.214,12.214,0,0,1,1.792-2.268c.908-.863,1.892-1.722,3.009-2.626l1.489-1.185c2.441-1.938,5.478-4.349,9.021-5.128a6.683,6.683,0,0,1,1.421-.16,4.614,4.614,0,0,1,3.945,2.013,5.387,5.387,0,0,1,.5,4.948,1.529,1.529,0,0,1,1.238-.538,1.949,1.949,0,0,1,1.832,1.148c5.322,13.724,10.114,27.953,14.748,41.714s9.426,27.989,14.751,41.726a327.583,327.583,0,0,0,18.421,40.181c17.982,32.575,39.98,57,65.38,72.61a135.122,135.122,0,0,0,24.195,11.876,94.1,94.1,0,0,0,26.265,5.733c1.6.1,3.21.151,4.8.151a75.321,75.321,0,0,0,21.009-2.988,79.146,79.146,0,0,0,19.473-8.693,105.2,105.2,0,0,0,18.244-14.39,138.428,138.428,0,0,0,15.188-17.785c8.179-11.308,15.636-24.649,22.8-40.785a401.611,401.611,0,0,0,17.454-47.3,420.063,420.063,0,0,0,11.536-49.147c-.311,0-.566.006-.8.006a65.958,65.958,0,0,1-26.41-5.751,64.43,64.43,0,0,1-21.919-15.675,60.353,60.353,0,0,1-13.42-24.86,40.416,40.416,0,0,1-1.338-13.015,47.753,47.753,0,0,1,2.778-12.715.517.517,0,0,1,.488-.334.4.4,0,0,1,.412.334,124.029,124.029,0,0,0,7.69,22.36,63.6,63.6,0,0,0,12.73,18.89,54.3,54.3,0,0,0,19.063,12.621,61.8,61.8,0,0,0,22.527,4.049l.381.011c.045-.331.095-.668.143-.994l0-.014q.044-.3.086-.592l.108-.8a9.991,9.991,0,0,1,3.149-6.373,8.413,8.413,0,0,1,5.545-2.043,8.943,8.943,0,0,1,5.036,1.556,8.384,8.384,0,0,1,3.27,4.491c1.44.457,2.639.84,3.86,1.249l.256.093c.475.181,1.207.5,2.054.872,2.526,1.106,6.344,2.778,8.052,2.778a1.188,1.188,0,0,0,.689-.162,4.048,4.048,0,0,1,2.395-.806c2.273,0,4.259,1.925,5.045,3.827,1.5,3.633,1.969,7.919,2.425,12.063.1.924.2,1.8.306,2.672l.079.624.09.751c19.087,4.96,35.823,16.8,49.741,35.189a156.136,156.136,0,0,1,16.171,26.969,217.1,217.1,0,0,1,11.228,28.942c6.363,20.484,10.626,41.9,14.749,62.62l.231,1.16c2.692,13.512,5.3,27.272,7.826,40.578l0,.025.007.036c1.747,9.214,3.555,18.741,5.373,28.1,10.151,52.23,17.866,95.369,24.28,135.76l2.091,13.184c7.38,46.647,13.342,85.824,18.449,125.406,2.669,20.66,5.384,42.867,8.3,67.89.467,3.986.941,8.065,1.408,12.123l.694,6.067c.065.57.136,1.149.2,1.709l0,.013a47.135,47.135,0,0,1,.511,7.206,15.757,15.757,0,0,1-1.738,6.982,14.872,14.872,0,0,1-13.023,7.892ZM290.959,73.984c-4.341,0-7.814-.829-10.321-2.466a.478.478,0,0,1-.228-.4.5.5,0,0,1,.228-.412c2.5-1.744,5.633-2.454,8.66-3.14h.005c1.134-.257,2.307-.523,3.4-.838a108.065,108.065,0,0,0,12.84-4.451,101.364,101.364,0,0,0,23.009-13.7,99.211,99.211,0,0,0,10.111-9.135,64.572,64.572,0,0,0,8.371-10.7,125.656,125.656,0,0,0,6.3-11.93,57.692,57.692,0,0,0,2.207-5.576A45.28,45.28,0,0,1,358.458,4.3a8.245,8.245,0,0,1,3.255-3.21A9.084,9.084,0,0,1,366.053,0a9.3,9.3,0,0,1,3.476.668,7.9,7.9,0,0,1,4.462,4.254,11.426,11.426,0,0,1,.668,6.2c-.7,4.869-3.747,10.184-6.2,14.455l-.381.665a79.049,79.049,0,0,1-9.7,13.02c-7.644,8.646-14.775,15.017-22.44,20.051a88.771,88.771,0,0,1-27.959,12.069l-2.346.547A68.825,68.825,0,0,1,290.959,73.984Z" transform="translate(22 2)"></path></g><g transform="translate(225 0)"><g><g><path id="_Skin" data-name="âœ‹ Skin" d="M185.625,0c56.781,0,115.511,44.012,136.324,72.1C346.015,104.572,365,260.469,356.094,313.368S302.949,423.924,226.15,423.924s-123.536-9.459-125.41-23.2-50.654-90.219-50.654-90.219S.2,296.473,0,262.954,26.736,217.24,26.736,217.24s-9.6-132.279,14.58-166.718S128.844,0,185.625,0Z" transform="translate(56.417 75.26)" fill="#d08b5b"></path><path id="_Ink" data-name="ðŸ– Ink" d="M229.621,443.145a165.926,165.926,0,0,1-28.257-2.44A87.852,87.852,0,0,1,190,437.965a73.4,73.4,0,0,1-11.027-4.444,49.655,49.655,0,0,1-18.057-14.736.969.969,0,0,1-.126-1.048,1.482,1.482,0,0,1,1.28-.731,1.223,1.223,0,0,1,.514.108,141.953,141.953,0,0,0,30.844,10.109,159.735,159.735,0,0,0,32.282,3.236,176.217,176.217,0,0,0,23.325-1.574,135.133,135.133,0,0,0,39.63-11.48c8-3.758,15.182-8.906,22.125-13.884,2.208-1.583,4.488-3.218,6.764-4.786a80.408,80.408,0,0,1,5.821-7.1l3.308-3.47c2.365-2.493,4.864-5.2,7.11-8.1a111.091,111.091,0,0,0,9.259-13.988,101.1,101.1,0,0,0,6.941-15.262c6.79-19.109,5.506-39.774,4.264-59.759l0-.057c-.083-1.329-.168-2.7-.249-4.049l-.111-1.876c-1.314-22.642-3.484-45.534-6.45-68.04-2.9-22.012-6.685-44.74-11.25-67.549-1.067-5.328-2.216-10.723-3.326-15.94v-.006c-1.19-5.59-2.42-11.37-3.552-17.074-.938-4.716-1.652-9.565-2.343-14.254l-.021-.142q-.207-1.407-.417-2.814a66.954,66.954,0,0,1-.52-9.924v-.366a4.576,4.576,0,0,1-.328.445l-.012.015a1.931,1.931,0,0,1-.769,2.441,12.669,12.669,0,0,1-6.422,1.365c-.727,0-1.472-.024-2.192-.048h-.008c-.717-.024-1.456-.048-2.183-.048h-.115c-3.96.02-7.983.03-11.873.039h-.067c-2.361.009-4.839.013-7.578.013-1.523,0-3.112,0-4.857,0l-12.435-.029L227.434,93C226.245,93,225,93,223.727,93c-6.654,0-13.431.049-19.985.1h-.019c-6.562.048-13.348.1-20.068.1-16.109,0-35.169-.245-54.394-2.062l-2.479-.245c-1.016-.117-6.109-.735-12.556-1.518l-.111-.013c-9.708-1.179-21.789-2.646-26.465-3.192l-.237-.028a298.081,298.081,0,0,1-42.09-7.71c2.359.945,4.708,2.079,6.981,3.175,2.079,1,4.228,2.04,6.368,2.925,6.155,2.533,12.372,4.682,17.642,6.45,3.832,1.288,7.729,2.585,11.5,3.839l.036.012c8.185,2.724,16.648,5.54,24.945,8.429,1.085.377,2.681,3.517,4.879,9.6,1.874,5.186,3.862,11.625,5.458,16.8,1.363,4.416,2.439,7.9,3.024,9.286l.059.135c.113.254.233.517.35.771l0,.006c.964,2.1,1.961,4.274,1.277,6.564-1.3,4.372-6.938,7.892-11.465,10.72-1.377.86-2.674,1.67-3.714,2.42l-4.6,3.316-6.009,4.348c-1.8,1.292-3.607,2.452-5.816,2.453a7.107,7.107,0,0,1-2.15-.347.035.035,0,0,0-.029-.01c2.285,10.608,3.587,40.626,4.213,55.052v.01c.126,2.905.226,5.2.3,6.448.08,1.413.233,2.893.395,4.46.545,5.283,1.163,11.268-1.135,15.749a4.671,4.671,0,0,1-3.85,2.348c-.074,0-.148,0-.22-.008-6.24-.471-12.585-.941-18.721-1.395l-.118-.009-1.44-.107a4.231,4.231,0,0,1-3.961-3.01l-.02-.1a.707.707,0,0,1-.183.025.681.681,0,0,1-.5-.225c-.371-.372-.754-.735-1.14-1.08a30.13,30.13,0,0,0-10.163-5.9A35.813,35.813,0,0,0,45.794,239.6a34.189,34.189,0,0,0-11.911,2.1c-3.249,1.219-11.348,4.683-16.37,10.52a21.527,21.527,0,0,0-4.432,9.082,43.333,43.333,0,0,0-1.058,10.168,53.12,53.12,0,0,0,.865,9.639,50.438,50.438,0,0,0,2.636,9.3,46.009,46.009,0,0,0,4.423,8.557,41.933,41.933,0,0,0,6.225,7.416c8.811,8.284,20.272,10.66,31.356,12.958l1.215.252a3.283,3.283,0,0,1,2.416,2.537,3.433,3.433,0,0,1-.955,3.483A137.861,137.861,0,0,1,72.3,339.838c.638.823,1.3,1.673,1.949,2.507,5,6.389,10.321,13.65,16.75,22.852l2.606,3.738.968,1.379c4.687,6.674,10,14.237,13.531,22.271,4.108,9.343,4.888,17.334,2.384,24.43a3.2,3.2,0,0,1-2.983,2.1,2.6,2.6,0,0,1-2.328-1.413,114.867,114.867,0,0,1-5.6-12.687c-1.476-3.748-3-7.623-4.861-11.282-3.776-7.419-8.523-14.418-13.113-21.186l-.417-.615-2.769-4.1c-4.158-6.179-9-13.487-13.411-20.838l-2.948-4.887A109.511,109.511,0,0,1,54.5,327.765a29.275,29.275,0,0,1-6.85.8,34.769,34.769,0,0,1-8.636-1.134,43.671,43.671,0,0,1-8.317-3.1,53.035,53.035,0,0,1-14.277-10.34A54.23,54.23,0,0,1,8.59,303.793a59.8,59.8,0,0,1-5.359-11.725A62.961,62.961,0,0,1,.253,266.6c.965-10.449,4.226-18.27,9.97-23.91.7-.682,1.436-1.323,2.061-1.859a1.19,1.19,0,0,1-.561-.571A67.044,67.044,0,0,1,7.388,223.6a162.456,162.456,0,0,1-1.335-17.265,317.783,317.783,0,0,1,.74-34.69,298.818,298.818,0,0,1,11.491-62.55A195.753,195.753,0,0,1,36.915,65.556,135.019,135.019,0,0,1,67.284,29.435C79.64,19.31,94.635,11.654,111.852,6.678a166.7,166.7,0,0,1,24.791-5.094A196.582,196.582,0,0,1,161.785,0h.348l1.012,0a217.494,217.494,0,0,1,91.592,21.122A204.168,204.168,0,0,1,294.667,46.1a182.981,182.981,0,0,1,32.573,33.719l1.124,1.537c.07.092,1.181,1.746,1.444,2.219.627,1.125,1.31,2.239,1.971,3.315l0,.006c.968,1.577,1.968,3.207,2.8,4.888a47.579,47.579,0,0,1,2.319,6.083c.16.484.34,1.031.518,1.555l.264.762c2.1,6.018,3.991,12.353,5.771,19.37,3.2,12.688,5.692,25.508,8.17,38.62,4.308,22.859,7.956,46.348,10.84,69.817,2.843,23.128,5.014,46.8,6.455,70.359l.567,9.448c.586,9.908,1.021,19.613-.083,29.407a95.894,95.894,0,0,1-3.365,16.571,106.493,106.493,0,0,1-6.124,15.769,128.563,128.563,0,0,1-17.17,26.39c-3.476,4.18-7.349,8.492-12.12,11.709-3.741,2.522-8.1,4.178-12.32,5.78a69.758,69.758,0,0,1-11.462,9.087,116.331,116.331,0,0,1-12.767,7.054,126.971,126.971,0,0,1-22.006,8.051,167.124,167.124,0,0,1-23.034,4.369A163.306,163.306,0,0,1,229.621,443.145ZM58.583,299.085a5.054,5.054,0,0,1-3.051-.929,4.357,4.357,0,0,1-1.669-2.961,37.31,37.31,0,0,0-5.669-15.28,9.293,9.293,0,0,0-2.049.95,16.034,16.034,0,0,0-1.949,1.568c-1.328,1.189-2.582,2.312-4.553,2.312a5.572,5.572,0,0,1-.659-.04c-2.537-.3-5.018-2.058-4.851-4.85a6.418,6.418,0,0,1,2.633-5.069,10.291,10.291,0,0,1,5.468-1.731c-.693-.62-1.235-1.091-1.759-1.523l-.653-.526c-1.039-.75-7.026-4.826-8.541-4.826-.209,0-.327.078-.352.23l-.005.084a.608.608,0,0,1-.178.439.72.72,0,0,1-.5.213.583.583,0,0,1-.438-.192,1.976,1.976,0,0,1-.619-1.765,3.677,3.677,0,0,1,2.259-2.265,6.056,6.056,0,0,1,2.514-.494c3.852,0,8.689,2.8,10.278,3.719l.217.125a41.812,41.812,0,0,1,12.4,11.129,47.3,47.3,0,0,1,7.5,14.9,4.77,4.77,0,0,1-.676,4.372A6.5,6.5,0,0,1,58.583,299.085Z" transform="translate(51 62.001)"></path></g></g><g transform="translate(159 186)"><g><path d="M140.63 0.473197L139.193 0.179116C137.503 -0.15929 135.804 -0.0161244 134.311 0.591153C132.847 1.18684 131.572 2.2242 130.68 3.72083C129.495 5.71373 129.337 7.38618 129.887 9.59525C130.311 11.3022 131.242 12.5864 132.46 13.5139C133.744 14.4911 135.37 15.0612 137.06 15.2595C144.854 16.175 152.53 17.8896 159.992 20.3235C163.488 21.4643 166.788 23.0096 170.058 24.6132L172.877 26.002C175.477 27.2735 178.163 28.499 181.557 29.3885C181.824 29.4584 182.087 29.5243 182.349 29.5865C183.29 29.2909 183.45 28.9329 183.649 28.6733L183.73 28.5721C183.972 28.2679 184.271 27.8025 183.988 25.6306C176.583 10.2711 156.267 3.74181 140.63 0.473197ZM43.5878 4.83023L45.4652 4.50163C51.273 3.49719 58.4944 2.53203 62.6028 7.20123C64.7819 9.67723 65.5318 14.2792 62.6028 16.6492C58.7671 19.7539 54.6298 19.6513 50.2182 19.5419C48.7043 19.5044 47.1582 19.466 45.5808 19.5562C40.4928 19.8482 35.6028 20.6902 30.7018 22.0912C19.9498 25.1642 11.1888 30.7742 2.00585 36.9342C0.800849 37.7422 -0.429151 36.2012 0.145849 35.0742C5.44685 24.6912 15.7198 16.1622 26.0098 10.9632C31.5019 8.18823 37.5118 5.88623 43.5878 4.83023ZM29.9632 50.1461C30.7976 39.7899 46.5702 37.4381 48.1392 47.6861C49.5442 56.8661 47.8902 65.2991 43.7552 73.5641C39.8042 81.4601 29.8737 77.7763 29.1227 70.5863C28.3809 63.4843 28.9069 59.2482 29.4428 54.933C29.6341 53.3921 29.8267 51.8412 29.9632 50.1461ZM159.205 41.8262C155.401 40.7152 152.226 42.6812 150.027 45.5612C149.773 45.8932 149.566 46.2222 149.38 46.5482C142.515 52.8562 145.101 65.6452 150.501 72.0492C153.814 75.9762 161.145 74.8452 163.413 70.3852C167.587 62.1722 171.09 45.2992 159.205 41.8262ZM128.748 119.039C136.872 107.66 125.366 96.9569 117.814 92.3669C115.836 90.9469 117.406 86.2431 121.634 86.9701C160.031 93.5671 140.136 159.708 91.112 123.413C85.2754 118.704 92.3434 108.334 98.6342 112.366C98.9532 112.611 99.2876 112.869 99.6364 113.139C106.704 118.603 119.636 128.601 128.748 119.039ZM93.5865 188.926C86.8642 186.184 80.8663 181.61 76.4812 175.766C74.9566 173.735 74.5614 171.589 74.8812 169.627C75.2408 167.421 76.546 165.422 78.326 164.08C80.1115 162.735 82.345 162.072 84.5043 162.41C86.3806 162.704 88.2484 163.731 89.7265 165.862L90.0354 166.288C92.6424 169.815 96.0396 172.708 99.9104 174.574C103.641 176.372 107.814 177.211 112.132 176.723C120.356 175.794 126.024 171.346 132.049 165.306C132.796 164.544 133.543 163.757 134.294 162.958C134.768 162.234 135.426 161.768 136.157 161.524C136.968 161.253 137.886 161.268 138.726 161.562C139.537 161.845 140.262 162.381 140.747 163.094C141.209 163.772 141.471 164.61 141.386 165.574C140.835 171.833 137.562 177.419 132.914 181.805C127.752 186.677 120.909 190.047 114.466 191.229C107.368 192.531 100.136 191.598 93.5865 188.926Z" transform="translate(53.00005 52.00027)" fill="#000000" fill-rule="evenodd" stroke="none"></path></g></g><g transform="translate(123 338)"></g><g transform="translate(47 241)"></g></g></g></svg>